<?xml version="1.0" encoding="UTF-8"?>
<svg width="28px" height="20px" viewBox="0 0 28 20" version="1.1" xmlns="http://www.w3.org/2000/svg" xmlns:xlink="http://www.w3.org/1999/xlink">
    <!-- Generator: sketchtool 53.2 (72643) - https://sketchapp.com -->
    <title>24F39CF2-C7EF-43C2-809C-9B9C865FE973@1x</title>
    <desc>Created with sketchtool.</desc>
    <defs>
        <path d="M4,9.38130086 L4,24 L28,24 L28,8.97868264 L16.6951996,18.4645364 C16.5519856,18.5847073 16.3849738,18.657876 16.2129163,18.6856831 C15.8525311,18.9281718 15.3615132,18.9147424 15.0121294,18.6215745 L4,9.38130086 Z M5.87288742,8 L15.7821972,16.3148982 L25.6915069,8 L5.87288742,8 Z M4,6 L28,6 C29.1045695,6 30,6.8954305 30,8 L30,24 C30,25.1045695 29.1045695,26 28,26 L4,26 C2.8954305,26 2,25.1045695 2,24 L2,8 C2,6.8954305 2.8954305,6 4,6 Z" id="path-1"></path>
    </defs>
    <g id="astro/basis/iconography" stroke="none" stroke-width="1" fill="none" fill-rule="evenodd">
        <g id="Iconography" transform="translate(-812.000000, -1071.000000)">
            <g id="Support-Icons" transform="translate(453.000000, 815.000000)">
                <g id="12" transform="translate(332.000000, 223.000000)">
                    <g id="icon/secondary/mail" transform="translate(25.000000, 27.000000)">
                        <mask id="mask-2" fill="white">
                            <use xlink:href="#path-1"></use>
                        </mask>
                        <use id="Mask" fill="#C5C5C5" fill-rule="nonzero" xlink:href="#path-1"></use>
                        <g id="color/moon-900" mask="url(#mask-2)" fill="#32383C" fill-rule="evenodd">
                            <rect id="Rectangle" x="0" y="0" width="32" height="32"></rect>
                        </g>
                    </g>
                </g>
            </g>
        </g>
    </g>
</svg>