<?xml version="1.0" encoding="UTF-8"?>
<svg width="32px" height="32px" viewBox="0 0 32 32" version="1.1" xmlns="http://www.w3.org/2000/svg" xmlns:xlink="http://www.w3.org/1999/xlink">
    <!-- Generator: Sketch 55.2 (78181) - https://sketchapp.com -->
    <title>icons/support/money-bag</title>
    <desc>Created with Sketch.</desc>
    <defs>
        <path d="M21.253807,10.5151363 L24.2595237,9.11710028 C24.8240987,8.85450193 25.5212834,9.04841791 25.8167293,9.55022375 C26.1121752,10.0520296 25.8940029,10.6717016 25.3294279,10.9342999 L23.8296311,11.6318939 L25.178062,11.992157 C25.7882965,12.1551946 26.1342887,12.7270558 25.9508573,13.2694447 C25.7674259,13.8118336 25.1240325,14.1193586 24.513798,13.9563209 L22.809509,13.5009825 C23.1299851,13.9281339 23.4123178,14.386746 23.651639,14.8718847 L26.2954672,20.2313082 C27.9403198,23.5656631 26.6069033,27.6202061 23.3171982,29.2873835 C22.3924749,29.7560206 21.3728012,30 20.3389291,30 L11.659612,30 C7.98160987,30 5,26.9779221 5,23.25 C5,22.2020956 5.24071229,21.1685824 5.70307395,20.2313082 L8.3469022,14.8718847 C8.68662335,14.1832206 9.10858294,13.5535595 9.59868052,12.9930203 C9.24355973,12.8241744 9,12.4772789 9,12.0767602 C9,11.5103443 9.48711419,11.0511735 10.088,11.0511735 L11.2735933,11.0511735 L9.01456602,8.76148539 C8.39010625,8.12855011 8.03928841,7.27010565 8.03928841,6.375 C8.03928841,4.51103897 9.53009335,3 11.3690944,3 L20.6294467,3 C21.5125662,3 22.3595154,3.35557934 22.9839752,3.98851461 C24.2843453,5.3065341 24.2843453,7.4434659 22.9839752,8.76148539 L21.253807,10.5151363 Z M14.4129645,11.0511735 L17.5855766,11.0511735 L21.4142895,7.17049513 C21.8477463,6.7311553 21.8477463,6.0188447 21.4142895,5.57950487 C21.2061363,5.36852645 20.9238199,5.25 20.6294467,5.25 L11.3690944,5.25 C10.7560941,5.25 10.2591591,5.75367966 10.2591591,6.375 C10.2591591,6.67336855 10.3760984,6.9595167 10.5842516,7.17049513 L14.4129645,11.0511735 Z M19.0149145,13.1023469 L12.9818498,13.1023469 C11.851987,13.7206585 10.9247934,14.6772781 10.3324149,15.8781153 L7.68858664,21.2375388 C7.38034554,21.8623883 7.21987068,22.5513971 7.21987068,23.25 C7.21987068,25.7352814 9.20761059,27.75 11.659612,27.75 L20.3389291,27.75 C21.0281772,27.75 21.7079596,27.5873471 22.3244418,27.2749224 C24.5175786,26.1634707 25.4065229,23.4604421 24.3099545,21.2375388 L21.6661263,15.8781153 C21.0837194,14.6974921 20.1573351,13.7290101 19.0149145,13.1023469 Z M15.3490077,24.0199945 C14.3818428,23.8295287 13.7897786,23.2900995 13.7054453,23.2067669 C13.4315182,22.9360902 13.4315182,22.5300752 13.7054453,22.2593985 C13.9793724,21.9887218 14.390263,21.9887218 14.66419,22.2593985 C14.6984309,22.2932331 15.1778033,22.7330827 15.9995845,22.7330827 C16.444716,22.7330827 17.1295336,22.5639098 17.1295336,22.056391 C17.1295336,21.7180451 16.7871248,21.5488722 15.7941392,21.2443609 C14.8353945,20.9398496 13.5,20.5338346 13.5,19.1466165 C13.5,18.1486202 14.2538877,17.3909279 15.351766,17.1773146 C15.3499404,17.1572879 15.3490077,17.1370171 15.3490077,17.1165414 L15.3490077,16.6766917 C15.3490077,16.3045113 15.6571757,16 16.0338254,16 C16.4104751,16 16.718643,16.3045113 16.718643,16.6766917 L16.718643,17.1165414 C16.718643,17.1406907 16.7173456,17.1645551 16.7148162,17.1880699 C17.4270343,17.3304082 17.9069251,17.6399309 17.9855557,17.6917293 C18.2937237,17.8947368 18.3964463,18.3345865 18.1567602,18.6390977 C17.9513149,18.943609 17.5061834,19.0451128 17.1980154,18.8082707 C17.1980154,18.8082707 16.6501613,18.4699248 15.9995845,18.4699248 C15.554453,18.4699248 14.8696353,18.6390977 14.8696353,19.1466165 C14.8696353,19.4849624 15.2120442,19.6541353 16.2050298,19.9586466 C17.1637745,20.2631579 18.499169,20.6691729 18.499169,22.056391 C18.5278026,23.0466764 17.8141532,23.8003568 16.718643,24.0206443 L16.718643,24.3233083 C16.718643,24.6954887 16.4104751,25 16.0338254,25 C15.6571757,25 15.3490077,24.6954887 15.3490077,24.3233083 L15.3490077,24.0199945 Z" id="path-1"></path>
    </defs>
    <g id="icons/support/money-bag" stroke="none" stroke-width="1" fill="none" fill-rule="evenodd">
        <rect fill="#FF0000" opacity="0" x="0" y="0" width="32" height="32"></rect>
        <mask id="mask-2" fill="white">
            <use xlink:href="#path-1"></use>
        </mask>
        <use id="Combined-Shape" fill="#979797" xlink:href="#path-1"></use>
        <g id="colors/moon/900" mask="url(#mask-2)" fill="#32383C" fill-rule="nonzero">
            <rect id="Rectangle-2-Copy-6" x="0" y="0" width="32" height="32"></rect>
        </g>
    </g>
</svg>