<?xml version="1.0" encoding="UTF-8"?>
<svg width="18px" height="23px" viewBox="0 0 18 23" version="1.1" xmlns="http://www.w3.org/2000/svg" xmlns:xlink="http://www.w3.org/1999/xlink">
    <!-- Generator: sketchtool 53.2 (72643) - https://sketchapp.com -->
    <title>E86F6AAB-3D1F-436F-9F83-01A049548AE5@1x</title>
    <desc>Created with sketchtool.</desc>
    <defs>
        <path d="M9,26.3823529 C9,26.9346377 8.55228475,27.3823529 8,27.3823529 C7.44771525,27.3823529 7,26.9346377 7,26.3823529 C7,21.3963663 11.0286141,17.3529412 16,17.3529412 C20.9713859,17.3529412 25,21.3963663 25,26.3823529 C25,26.9346377 24.5522847,27.3823529 24,27.3823529 C23.4477153,27.3823529 23,26.9346377 23,26.3823529 C23,22.4992962 19.8651701,19.3529412 16,19.3529412 C12.1348299,19.3529412 9,22.4992962 9,26.3823529 Z M16,15.6470588 C13.0678193,15.6470588 10.6923077,13.2628137 10.6923077,10.3235294 C10.6923077,7.38424513 13.0678193,5 16,5 C18.9321807,5 21.3076923,7.38424513 21.3076923,10.3235294 C21.3076923,13.2628137 18.9321807,15.6470588 16,15.6470588 Z M16,13.6470588 C17.8259649,13.6470588 19.3076923,12.1598838 19.3076923,10.3235294 C19.3076923,8.48717498 17.8259649,7 16,7 C14.1740351,7 12.6923077,8.48717498 12.6923077,10.3235294 C12.6923077,12.1598838 14.1740351,13.6470588 16,13.6470588 Z" id="path-1"></path>
    </defs>
    <g id="astro/basis/iconography" stroke="none" stroke-width="1" fill="none" fill-rule="evenodd">
        <g id="Iconography" transform="translate(-1146.000000, -1070.000000)">
            <g id="Support-Icons" transform="translate(453.000000, 815.000000)">
                <g id="15" transform="translate(661.000000, 223.000000)">
                    <g id="icon/secondary/profile" transform="translate(25.000000, 27.000000)">
                        <mask id="mask-2" fill="white">
                            <use xlink:href="#path-1"></use>
                        </mask>
                        <use id="Mask" fill="#C5C5C5" fill-rule="nonzero" xlink:href="#path-1"></use>
                        <g id="color/moon-900" mask="url(#mask-2)" fill="#32383C" fill-rule="evenodd">
                            <rect id="Rectangle" x="0" y="0" width="32" height="32"></rect>
                        </g>
                    </g>
                </g>
            </g>
        </g>
    </g>
</svg>