<?xml version="1.0" encoding="UTF-8"?>
<svg width="32px" height="32px" viewBox="0 0 32 32" version="1.1" xmlns="http://www.w3.org/2000/svg" xmlns:xlink="http://www.w3.org/1999/xlink">
    <!-- Generator: Sketch 58 (84663) - https://sketch.com -->
    <title>icons/dashboard/transactions</title>
    <desc>Created with Sketch.</desc>
    <defs>
        <path d="M13.0559371,2.68319098 C13.2525151,3.22304578 12.9769073,3.82102187 12.4403499,4.01880796 C7.45355882,5.85704149 4.0693456,10.6461381 4.0693456,16.0785521 C4.0693456,23.1695489 9.78262405,28.9179375 16.8303102,28.9179375 C22.4122543,28.9179375 27.2966425,25.2790335 28.980137,20.016529 C29.1552185,19.4692347 29.7381099,19.1683687 30.2820615,19.3445261 C30.8260131,19.5206836 31.1250414,20.1071571 30.9499599,20.6544514 C28.9930854,26.7715254 23.3173348,31 16.8303102,31 C8.63975603,31 2,24.3194402 2,16.0785521 C2,9.76550702 5.93266908,4.20027485 11.7284778,2.0638208 C12.2650353,1.86603471 12.859359,2.14333619 13.0559371,2.68319098 Z M15.856,24.192 L15.874,24.205 C15.8708674,24.2033575 15.8700004,24.2027118 15.8691345,24.2020647 L15.8625393,24.1970899 L15.856,24.192 Z M15.5,23.686 L15.510956,23.716307 C15.5010237,23.6886399 15.4922893,23.660318 15.4847515,23.6315078 C15.4828167,23.6235437 15.4808962,23.6158064 15.4790613,23.6080611 L15.4579415,23.4891556 L15.4579415,23.4891556 L15.4507339,23.3657583 L15.4507339,17.8135916 C15.4507339,17.238646 15.9139727,16.7725604 16.4854067,16.7725604 C17.0187452,16.7725604 17.4578335,17.1785727 17.5140082,17.7001598 L17.5200795,17.8135916 L17.5208201,20.6127895 L26.0562979,10.8786354 C26.434371,10.4475193 27.0882138,10.406403 27.5166967,10.7867995 C27.9122193,11.1379347 27.9774642,11.7254893 27.6877967,12.1528891 L27.6079716,12.2561729 L18.7788201,22.3247895 L22.0036617,22.324727 C22.5370001,22.324727 22.9760885,22.7307394 23.0322632,23.2523265 L23.0383345,23.3657583 C23.0383345,23.9023743 22.634802,24.344161 22.1164007,24.4006809 L22.0036617,24.4067895 L16.4858201,24.4067895 L16.4401725,24.4058294 C16.3957948,24.403903 16.3514832,24.3991127 16.3075325,24.3914401 L16.2552855,24.3809489 C16.2408488,24.3776243 16.2260556,24.3739024 16.2113294,24.369845 C16.1868556,24.3631137 16.1632095,24.3556386 16.1399458,24.34735 L16.1030594,24.3334074 L16.1030594,24.3334074 C16.0798409,24.3240918 16.0575033,24.3141888 16.0355958,24.3035316 C16.0187301,24.2953768 16.00134,24.2863167 15.9841528,24.2767213 L15.9680365,24.2674984 L15.9580302,24.2615984 L15.9580302,24.2615984 L15.926487,24.2419821 L15.8947279,24.2205884 L15.889,24.216 L15.8008448,24.1463629 C15.79977,24.1454088 15.7986977,24.1444528 15.7976278,24.1434952 C15.7730798,24.1215335 15.7493847,24.0981851 15.7268094,24.0737069 C15.7236356,24.0702658 15.7204562,24.0667716 15.7173003,24.0632556 L15.7130372,24.0584767 C15.7031293,24.0474473 15.6939396,24.0366489 15.6850025,24.0257033 C15.6711998,24.0086062 15.657334,23.9904488 15.6440635,23.9718328 C15.6299301,23.9522452 15.6169534,23.9326289 15.604701,23.9126717 C15.5976391,23.9009426 15.5905463,23.888875 15.5836918,23.8766541 L15.5496112,23.8104946 C15.5432035,23.7968401 15.5368389,23.7824951 15.5307916,23.7679831 C15.5236289,23.7506326 15.5170617,23.7335379 15.510956,23.716307 L15.503,23.694 L15.5,23.686 Z M21.6583699,4.6272084 L21.7040174,4.6281685 C21.7483952,4.63009498 21.7927068,4.63488525 21.8366575,4.64255785 L21.8889045,4.65304904 C21.9033411,4.65637366 21.9181343,4.66009551 21.9328606,4.66415294 C21.9573344,4.67088427 21.9809805,4.67835937 22.0042442,4.68664796 C22.0164259,4.6909877 22.0288137,4.69566436 22.0411306,4.70059055 C22.0643491,4.70990616 22.0866867,4.71980914 22.1085942,4.73046636 C22.1254599,4.73862114 22.14285,4.74768128 22.1600372,4.75727663 L22.1761535,4.76649955 L22.1861598,4.77239957 L22.217703,4.79201588 L22.2494621,4.81340956 L22.2543699,4.8172084 L22.3433452,4.88763501 C22.34442,4.88858918 22.3454923,4.8895451 22.3465622,4.89050275 C22.3711102,4.91246441 22.3948053,4.93581282 22.4173806,4.96029106 C22.4205544,4.96373215 22.4237338,4.96722635 22.4268897,4.97074233 L22.4311528,4.97552126 C22.4410607,4.98655064 22.4502504,4.99734904 22.4591875,5.00829461 C22.4729902,5.02539173 22.486856,5.04354914 22.5001265,5.06216515 C22.5142599,5.08175271 22.5272366,5.10136899 22.539489,5.12132624 C22.5465509,5.13305537 22.5536437,5.14512294 22.5604982,5.1573438 L22.5945788,5.22350338 C22.6009865,5.23715781 22.6073511,5.2515028 22.6133984,5.26601481 L22.6237126,5.29189772 L22.633234,5.31769089 C22.6431663,5.34535801 22.6519006,5.37367989 22.6594385,5.40249013 C22.6613733,5.41045421 22.6632938,5.41819156 22.6651287,5.42593682 L22.6862485,5.54484237 L22.693456,5.66823965 L22.693456,11.2204063 C22.693456,11.795352 22.2302173,12.2614375 21.6587832,12.2614375 C21.1254448,12.2614375 20.6863565,11.8554252 20.6301818,11.3338381 L20.6241104,11.2204063 L20.6233699,8.4212084 L12.0878921,18.1553626 C11.709819,18.5864786 11.0559762,18.6275949 10.6274933,18.2471984 C10.2319707,17.8960632 10.1667258,17.3085086 10.4563933,16.8811089 L10.5362184,16.777825 L19.3653699,6.7092084 L16.1405283,6.70927089 C15.6071899,6.70927089 15.1681015,6.30325858 15.1119268,5.78167147 L15.1058555,5.66823965 C15.1058555,5.13162368 15.509388,4.68983696 16.0277893,4.63331703 L16.1405283,4.6272084 L21.6583699,4.6272084 Z M22.2698476,4.82806704 C22.2715877,4.82935043 22.2733237,4.83063915 22.2750555,4.83193319 L22.2873699,4.8412084 L22.2698476,4.82806704 Z" id="path-1"></path>
    </defs>
    <g id="icons/dashboard/transactions" stroke="none" stroke-width="1" fill="none" fill-rule="evenodd">
        <rect fill="#FFFFFF" opacity="0" x="0" y="0" width="32" height="32"></rect>
        <mask id="mask-2" fill="white">
            <use xlink:href="#path-1"></use>
        </mask>
        <use fill="#979797" fill-rule="nonzero" xlink:href="#path-1"></use>
        <g id="colors/moon/900" mask="url(#mask-2)" fill="#32383C" fill-rule="nonzero">
            <rect id="Rectangle-2-Copy-6" x="0" y="0" width="32" height="32"></rect>
        </g>
    </g>
</svg>